<?xml version="1.0" standalone="no"?>
<!DOCTYPE svg PUBLIC "-//W3C//DTD SVG 20010904//EN"
 "http://www.w3.org/TR/2001/REC-SVG-20010904/DTD/svg10.dtd">
<svg version="1.0" xmlns="http://www.w3.org/2000/svg"
 width="1024.000000pt" height="1024.000000pt" viewBox="0 0 1024.000000 1024.000000"
 preserveAspectRatio="xMidYMid meet">
<metadata>
Created by potrace 1.14, written by Peter Selinger 2001-2017
</metadata>
<g transform="translate(0.000000,1024.000000) scale(0.100000,-0.100000)"
fill="#000000" stroke="none">
<path d="M776 10087 c-85 -89 -150 -193 -243 -387 -100 -208 -101 -211 -109
-245 -4 -16 -13 -41 -20 -55 -15 -31 -37 -168 -37 -231 0 -34 6 -52 22 -68 22
-22 24 -38 26 -181 0 -41 4 -93 8 -115 8 -40 7 -41 -28 -58 -46 -22 -47 -22
-45 11 3 42 2 44 -25 26 -14 -9 -28 -28 -31 -43 -6 -25 -53 -142 -59 -149 -11
-11 -81 -20 -91 -11 -9 7 -14 4 -19 -10 -3 -11 -19 -29 -34 -40 -15 -11 -42
-47 -59 -79 l-32 -60 0 -396 c0 -218 2 -396 5 -396 3 0 13 5 23 10 19 11 301
80 327 80 30 0 9 -25 -26 -31 -34 -7 -150 -45 -180 -59 -9 -5 -40 -6 -69 -3
-35 3 -50 1 -46 -6 4 -5 -3 -15 -14 -21 -19 -10 -20 -19 -20 -354 l0 -343 75
5 c52 3 75 1 75 -7 0 -7 19 -11 48 -11 27 0 57 -7 70 -16 31 -21 157 -37 183
-23 15 8 34 5 77 -11 31 -12 62 -26 69 -31 16 -14 109 -15 125 -2 23 19 155
38 171 24 10 -8 44 -9 116 -5 87 6 101 5 101 -8 0 -25 25 -30 225 -39 105 -4
201 -11 215 -14 14 -4 49 -8 78 -9 34 -1 58 -8 69 -19 13 -12 14 -17 4 -17 -8
0 -11 -7 -8 -19 7 -28 -18 -58 -53 -66 -16 -3 -47 -15 -69 -26 -22 -10 -46
-19 -54 -19 -8 0 -20 -7 -27 -15 -7 -8 -9 -15 -5 -15 5 0 0 -9 -10 -20 -10
-11 -13 -20 -7 -20 6 0 13 4 17 10 6 9 15 7 68 -12 29 -11 37 -28 13 -28 -8 0
-17 -8 -20 -18 -3 -9 -24 -25 -46 -34 -28 -13 -38 -22 -34 -33 4 -8 7 -15 9
-15 1 0 41 -14 89 -31 48 -17 93 -28 100 -26 8 3 24 -5 36 -18 19 -20 26 -22
43 -14 14 8 22 8 28 -2 6 -10 15 -10 48 1 41 13 41 13 22 34 -10 12 -16 27
-14 34 3 7 -1 10 -10 6 -10 -3 -18 2 -22 16 -4 12 -17 26 -30 32 -13 6 -25 18
-28 27 -3 9 -8 25 -13 35 -7 17 -4 19 34 13 46 -6 54 3 20 22 -20 10 -16 10
24 6 33 -4 56 -15 79 -36 17 -16 35 -29 40 -29 16 0 22 30 9 45 -10 12 -10 15
3 15 9 0 22 12 29 28 11 23 21 28 76 36 49 7 62 12 60 25 -3 14 8 16 80 12 74
-3 82 -1 82 15 1 17 2 17 13 3 7 -9 28 -18 47 -20 l35 -4 -18 36 c-20 40 -57
79 -57 61 0 -7 -5 -12 -11 -12 -6 0 -9 6 -6 13 2 6 -9 27 -24 45 -47 53 -33
93 25 78 35 -9 88 -56 82 -72 -3 -8 1 -14 9 -14 14 0 19 -11 16 -37 -3 -20 20
-26 45 -12 29 15 32 51 8 98 -11 22 -14 45 -10 72 5 32 1 47 -20 81 l-27 42
24 18 c19 16 35 19 96 15 58 -3 73 -1 69 9 -9 23 8 23 62 -2 69 -32 232 -73
263 -66 9 1 22 14 30 28 26 50 -17 202 -79 275 -17 21 -22 33 -14 41 7 7 27
-6 64 -43 30 -30 71 -68 90 -86 20 -17 51 -57 70 -88 28 -47 37 -55 58 -53 15
2 29 12 35 26 10 23 24 28 41 14 5 -5 29 -15 54 -22 66 -20 150 -88 166 -134
9 -27 -20 -46 -72 -46 -23 0 -55 -7 -70 -15 -16 -8 -36 -15 -45 -15 -9 0 -23
-8 -30 -17 -12 -15 -12 -16 3 -10 13 5 19 0 24 -18 5 -19 14 -25 48 -30 24 -4
60 -2 80 4 25 6 46 7 63 0 14 -5 69 -11 122 -13 78 -2 107 -8 155 -29 l58 -27
-7 -112 c-8 -127 -17 -144 -70 -133 -16 4 -40 9 -52 12 -32 7 -29 -14 5 -31
16 -8 51 -45 78 -81 27 -37 62 -82 78 -101 27 -33 23 -43 -12 -25 -84 46 -229
64 -305 37 -37 -14 -38 -13 -48 12 -6 15 -21 37 -34 49 l-24 22 -6 -28 c-3
-16 -3 -45 0 -63 6 -30 3 -36 -20 -46 -65 -30 -115 6 -115 82 0 23 -6 51 -14
61 -12 17 -18 18 -40 7 -14 -6 -26 -17 -26 -24 0 -7 -4 -19 -9 -27 -8 -12 -12
-12 -24 -2 -10 8 -17 9 -22 1 -8 -13 3 -30 20 -30 16 0 72 -77 63 -86 -10 -9
-100 17 -128 38 -19 13 -36 19 -51 15 -13 -3 -29 -1 -36 5 -24 19 -25 1 -3
-41 11 -23 16 -41 11 -41 -13 0 -51 49 -51 66 0 9 -11 13 -32 11 -28 -2 -34
-7 -36 -30 l-3 -28 -20 22 c-16 18 -22 20 -28 10 -13 -21 11 -61 37 -61 12 0
22 -5 22 -11 0 -6 9 -24 21 -40 14 -20 16 -27 6 -23 -8 3 -17 13 -20 23 -2 10
-18 24 -36 32 -17 8 -31 17 -31 20 0 4 -17 14 -37 22 -21 8 -47 24 -57 36 -20
22 -51 28 -61 11 -5 -8 -11 -7 -20 0 -8 7 -19 9 -25 5 -6 -4 -18 -1 -27 7 -14
11 -16 10 -11 -7 3 -11 9 -28 13 -37 11 -27 -10 -21 -25 7 -10 19 -21 25 -47
25 -18 0 -33 5 -33 10 0 17 31 24 51 12 25 -16 29 -15 23 6 -3 9 -8 23 -10 31
-4 11 -7 12 -16 3 -7 -7 -25 -12 -40 -12 -15 0 -28 -4 -28 -10 0 -5 -7 -10
-16 -10 -12 0 -14 -3 -6 -13 7 -8 7 -18 2 -27 -7 -12 -12 -12 -28 3 -10 9 -35
17 -55 17 -26 0 -39 6 -47 20 -6 11 -20 20 -31 20 -11 0 -30 6 -42 14 -27 17
-97 30 -97 19 0 -15 89 -92 113 -98 24 -6 57 -55 37 -55 -5 0 -7 -6 -5 -13 6
-14 83 -57 103 -57 6 0 12 -4 12 -10 0 -5 -6 -10 -13 -10 -21 0 -158 48 -173
61 -7 6 -18 8 -24 4 -16 -10 -12 -36 8 -52 10 -9 11 -12 2 -7 -8 4 -25 16 -37
27 -13 11 -26 18 -29 14 -16 -15 85 -117 149 -150 25 -13 23 -14 -37 -13 -50
1 -70 6 -103 28 -25 16 -58 28 -83 30 -23 1 -44 6 -46 10 -3 4 -11 8 -17 8 -7
-1 -6 -5 4 -13 26 -20 53 -67 43 -77 -5 -5 -27 -10 -49 -12 -38 -4 -39 -4 -15
-15 14 -6 49 -22 79 -35 l53 -25 -59 -7 c-66 -7 -87 -3 -120 27 -24 21 -41 18
-29 -5 35 -69 96 -127 135 -129 52 -3 116 3 127 12 7 5 48 5 102 0 51 -6 103
-6 119 -1 24 7 21 8 -24 9 -59 1 -79 16 -30 24 38 5 75 -7 83 -28 9 -22 6 -23
-59 -29 -55 -5 -96 -19 -107 -37 -3 -5 -34 -10 -68 -12 -35 -3 -66 -8 -69 -11
-16 -16 14 -19 80 -8 39 7 95 15 122 19 54 8 244 7 252 -1 9 -9 -8 -43 -37
-73 -24 -24 -48 -35 -107 -48 -96 -22 -123 -34 -123 -55 0 -21 -46 -29 -153
-29 -44 0 -82 -7 -110 -19 -25 -11 -60 -17 -87 -16 -41 2 -42 2 -10 -4 34 -7
34 -8 13 -20 -12 -6 -32 -12 -45 -12 -13 0 -33 -7 -44 -15 -17 -13 -15 -13 18
-3 42 13 57 6 38 -17 -16 -20 -6 -45 20 -45 17 0 19 5 14 24 -5 22 -3 24 41
28 58 4 78 -6 51 -27 -11 -8 -26 -15 -33 -15 -7 0 -18 -11 -23 -24 -6 -17 -22
-29 -52 -38 -54 -16 -120 -52 -111 -61 3 -4 17 -7 29 -7 13 0 25 -4 28 -9 10
-15 -37 -38 -94 -44 -32 -4 -60 -13 -66 -22 -7 -9 -14 -11 -15 -6 -2 6 -15 11
-29 11 -35 0 -183 -19 -188 -25 -3 -3 22 -5 56 -5 78 0 81 -16 4 -25 -79 -9
-102 -25 -37 -25 41 -1 56 -6 84 -31 26 -24 31 -33 20 -40 -7 -4 -10 -11 -7
-15 4 -4 18 0 30 8 33 21 76 30 84 17 3 -6 1 -16 -5 -22 -19 -19 -13 -24 37
-30 50 -6 102 -25 102 -37 0 -7 -26 -19 -84 -36 -32 -10 -47 -34 -22 -34 20 0
57 -31 50 -41 -3 -5 -16 -4 -29 1 -14 5 -25 7 -25 5 0 -3 -11 2 -24 10 -18 12
-37 15 -73 10 -76 -10 -134 -27 -130 -39 1 -6 25 -22 53 -36 27 -14 60 -33 73
-42 21 -15 22 -18 8 -24 -28 -10 -20 -22 36 -50 75 -38 177 -106 177 -119 0
-16 -159 -65 -213 -65 -25 0 -49 -4 -52 -10 -3 -5 -2 -10 3 -10 5 0 10 -17 10
-37 0 -21 2 -47 4 -58 2 -11 -1 -20 -7 -20 -49 -4 -78 -19 -87 -46 -5 -15 -18
-31 -28 -34 -10 -3 -21 -19 -25 -35 -3 -15 -13 -31 -21 -34 -14 -6 -20 -46 -6
-46 11 0 43 -56 35 -63 -3 -4 -16 -4 -29 -1 -13 3 -35 -2 -53 -12 -30 -18 -33
-25 -43 -124 -3 -22 -9 -26 -48 -30 -25 -3 -57 -14 -72 -24 -15 -10 -31 -15
-36 -12 -6 3 -16 -1 -23 -10 -24 -29 -58 -36 -94 -18 -53 25 -75 16 -112 -46
-18 -30 -38 -64 -43 -75 -6 -11 -21 -39 -35 -63 -13 -23 -29 -67 -35 -97 -6
-30 -17 -58 -25 -62 -16 -10 -65 -100 -65 -121 0 -12 3 -12 15 -2 9 7 50 15
92 18 69 4 76 3 70 -12 -4 -10 -7 -26 -7 -36 0 -12 -16 -26 -45 -40 -75 -36
-222 -209 -290 -340 -16 -32 -16 -32 7 -25 13 4 41 17 63 29 l41 22 -10 -50
c-8 -44 -24 -114 -55 -231 -4 -16 -22 -58 -40 -93 -29 -57 -32 -71 -33 -163
-1 -77 2 -103 13 -110 10 -6 19 -2 30 13 16 21 16 20 27 -11 14 -39 27 -34 36
14 4 19 11 35 17 35 5 0 16 15 24 34 9 21 23 36 38 40 15 3 41 32 72 78 45 68
137 184 160 200 25 18 23 5 -5 -34 -32 -43 -33 -63 -2 -35 10 10 22 14 25 10
13 -13 7 -61 -12 -84 -34 -44 3 -67 54 -33 30 19 30 17 9 -47 -9 -27 -14 -53
-10 -56 3 -4 34 13 67 36 33 24 63 40 66 38 7 -7 -58 -104 -106 -159 -39 -44
-73 -102 -86 -147 -11 -35 6 -24 71 49 65 74 129 119 193 138 34 11 46 11 55
1 8 -9 8 -10 -3 -4 -11 6 -13 4 -8 -9 5 -11 -3 -36 -19 -66 -46 -85 -20 -133
42 -75 32 30 63 40 76 27 11 -11 -6 -71 -29 -107 -7 -11 -13 -30 -13 -42 0
-13 -4 -23 -10 -23 -5 0 -10 -7 -10 -15 0 -26 46 14 60 53 6 17 16 32 21 32
12 0 12 -17 -1 -25 -5 -3 -10 -11 -10 -17 0 -6 21 9 47 33 27 25 48 38 51 31
6 -19 59 -15 66 5 5 11 10 13 14 7 4 -6 19 -14 34 -18 20 -4 30 -2 37 11 9 17
11 17 25 -2 8 -11 14 -29 13 -40 -4 -27 -46 -156 -58 -179 -8 -13 -7 -17 2
-14 7 2 23 31 36 64 l24 59 -5 -43 c-6 -59 2 -82 28 -82 28 0 46 18 46 47 0
13 6 23 14 23 8 0 32 15 52 34 21 19 55 39 76 44 35 9 37 8 35 -12 -1 -13 4
-21 13 -21 9 0 16 11 18 26 2 15 11 30 20 33 9 3 23 9 31 12 9 5 12 2 7 -7 -4
-8 -1 -6 6 3 13 15 15 15 26 -3 14 -22 8 -39 -13 -39 -10 0 -45 -65 -45 -85 0
-8 34 8 75 35 22 15 47 30 55 33 8 4 25 14 38 23 22 16 22 16 22 -27 -1 -24
-7 -62 -15 -84 -27 -74 -10 -73 25 3 70 150 146 294 181 342 22 30 55 78 74
105 18 28 74 92 124 144 50 52 91 102 91 111 0 10 8 28 18 41 10 13 26 42 35
64 10 22 25 54 34 70 9 17 24 47 35 67 11 23 28 40 43 44 14 3 25 9 25 14 0 4
28 35 63 70 42 43 75 67 102 74 21 6 40 17 43 24 2 8 -12 5 -42 -8 -25 -10
-46 -16 -46 -11 0 14 64 76 92 88 15 7 35 25 45 40 9 15 30 43 46 62 16 19 36
48 43 65 21 48 45 70 104 96 67 29 120 66 120 84 0 7 13 24 29 37 29 24 43 58
86 202 10 31 22 57 26 57 5 0 9 6 9 13 0 6 7 26 16 42 9 17 33 73 55 125 l38
95 73 38 c40 21 89 51 108 66 19 16 45 31 58 35 12 4 22 11 22 16 0 5 16 17
35 26 74 35 101 90 115 239 9 94 38 196 58 203 7 2 12 -3 12 -12 0 -20 24 -21
44 -1 8 8 19 15 25 15 26 0 81 48 100 88 22 44 27 82 12 82 -5 0 -11 13 -14
30 -5 22 -13 31 -34 36 -65 14 -61 9 -45 67 8 28 16 66 19 82 3 17 15 39 28
50 13 11 36 41 52 66 27 43 51 73 111 136 12 13 22 31 22 39 0 8 4 13 8 10 5
-3 26 17 47 45 22 27 45 49 51 49 13 0 34 -51 34 -80 0 -10 -7 -23 -15 -30
-13 -11 -15 -8 -15 19 0 17 -4 31 -10 31 -5 0 -10 -10 -10 -22 0 -12 -5 -37
-12 -55 -10 -29 -10 -36 2 -43 20 -13 30 -12 30 0 0 21 69 79 125 105 41 20
66 41 92 76 27 39 42 50 71 54 20 4 48 10 62 15 14 5 47 11 73 14 61 7 107 38
100 66 -3 11 -9 20 -14 20 -5 0 -9 5 -9 10 0 6 -9 30 -20 52 -22 46 -24 66
-10 88 8 12 22 2 79 -54 l69 -69 55 6 c42 5 57 3 67 -8 7 -8 17 -15 23 -15 6
0 19 -7 29 -17 25 -22 36 -8 13 17 -15 16 -15 20 -3 20 20 0 52 -36 43 -50 -3
-5 -11 -8 -16 -5 -5 4 -9 2 -9 -3 0 -14 -37 -3 -51 14 -16 19 -29 18 -28 -3 1
-43 96 -89 202 -100 121 -12 174 -62 212 -201 17 -59 17 -66 2 -98 -10 -19
-17 -37 -17 -39 0 -3 23 -16 50 -30 36 -18 67 -47 110 -101 33 -41 65 -84 70
-94 6 -11 42 -36 81 -56 38 -20 74 -45 80 -56 6 -11 6 -17 0 -16 -5 2 -9 0
-10 -4 -3 -26 1 -37 12 -32 17 6 42 -22 28 -30 -5 -4 -12 -2 -16 4 -3 5 -11
10 -16 10 -6 0 12 -18 40 -40 28 -22 63 -60 77 -83 15 -23 38 -52 53 -64 23
-19 25 -24 13 -43 -12 -19 -11 -24 5 -39 10 -9 26 -20 36 -24 13 -5 16 -13 12
-27 -5 -17 1 -23 32 -36 21 -9 52 -18 70 -19 53 -5 73 -15 73 -36 0 -16 -4
-18 -17 -11 -10 5 -33 12 -52 16 -33 6 -34 6 -17 -13 10 -11 15 -24 12 -29 -3
-5 10 -16 29 -25 19 -9 35 -23 35 -31 0 -7 7 -27 15 -42 8 -16 15 -23 15 -16
0 10 4 10 20 0 25 -16 27 -40 3 -31 -14 6 -13 2 5 -21 12 -16 22 -35 22 -42 0
-8 15 -20 33 -28 19 -7 49 -28 69 -45 20 -17 46 -31 59 -31 15 0 47 -24 96
-74 69 -70 89 -106 61 -106 -7 0 1 -9 18 -19 17 -10 53 -50 81 -88 48 -66 80
-97 183 -178 53 -43 117 -97 167 -144 20 -18 52 -40 71 -48 33 -14 37 -13 49
4 13 16 9 23 -34 63 -27 25 -61 55 -77 66 -20 16 -28 32 -29 55 -2 31 0 34 26
32 15 -1 27 1 27 5 0 4 -14 35 -30 70 -24 47 -40 67 -68 81 -20 10 -50 33 -67
50 -16 17 -56 43 -87 57 -58 27 -58 27 -58 70 0 24 -5 55 -12 69 -10 21 -9 31
5 55 24 39 23 140 0 161 -10 9 -28 28 -40 42 -26 31 -43 32 -155 15 -98 -14
-119 -6 -137 53 -10 33 -31 61 -83 110 -38 37 -70 76 -73 87 -7 36 -187 230
-222 238 -24 6 -73 54 -54 54 6 0 11 6 10 13 -4 29 2 39 17 33 13 -5 15 -1 11
16 -2 13 -8 31 -12 40 -6 15 -3 17 23 12 32 -7 52 10 33 29 -18 18 -13 27 14
27 14 0 25 2 25 3 0 14 -35 70 -46 74 -9 3 -12 13 -9 24 5 14 1 19 -12 19 -11
0 -34 15 -52 34 l-33 34 31 10 c20 7 42 8 63 1 18 -5 48 -9 66 -9 19 0 64 -13
102 -30 73 -32 193 -48 220 -29 11 8 8 9 -13 6 -18 -3 -26 0 -24 7 2 6 23 10
48 9 24 -1 47 3 52 10 6 8 7 6 3 -6 -3 -10 -6 -24 -6 -30 0 -8 -4 -7 -12 1
-16 16 -29 15 -22 -2 6 -17 26 -15 48 3 9 7 16 10 16 5 0 -4 5 -3 11 3 6 6 17
9 25 6 9 -3 12 2 9 15 -3 16 1 19 18 14 19 -5 20 -3 9 10 -11 14 -10 16 10 12
13 -2 17 -2 11 2 -7 3 -13 10 -13 15 0 6 8 5 20 -1 16 -9 20 -8 20 5 0 8 6 15
13 15 8 0 7 4 -3 10 -8 5 -19 10 -25 10 -5 0 -3 -5 5 -10 12 -8 11 -10 -7 -10
-13 0 -23 2 -23 4 0 3 19 26 41 53 46 53 86 78 103 65 6 -5 25 -12 43 -15 26
-5 33 -3 38 14 5 14 1 25 -12 35 -16 13 -16 13 0 8 12 -4 17 -1 17 11 0 12 6
16 20 12 11 -3 17 -1 14 4 -3 6 -1 15 4 22 5 7 12 26 15 43 5 26 1 35 -23 55
-16 13 -29 28 -30 32 0 11 26 37 38 37 6 0 12 7 16 15 3 8 1 15 -4 15 -6 0
-10 4 -10 10 0 12 94 40 136 40 31 0 33 2 40 46 5 38 3 51 -15 74 -11 16 -21
31 -21 33 0 3 15 10 33 17 17 8 39 19 47 25 8 7 32 18 52 24 21 7 41 19 46 26
7 13 35 23 73 24 16 1 33 47 20 55 -3 2 -35 7 -71 11 -40 4 -68 12 -73 21 -4
8 -23 14 -42 14 -19 0 -37 5 -40 10 -3 6 -34 10 -68 10 -50 0 -70 5 -99 25
-20 14 -39 25 -42 25 -4 0 -6 -13 -6 -30 0 -25 -4 -30 -25 -30 -18 0 -28 7
-35 24 -5 14 -20 26 -37 30 -24 6 -114 43 -190 79 -14 6 -76 8 -165 4 -182 -7
-187 -8 -318 -67 -47 -22 -101 -41 -120 -43 -41 -4 -71 -19 -122 -59 -21 -16
-42 -27 -48 -23 -5 3 -10 1 -10 -4 0 -20 -17 -11 -36 17 -11 17 -17 43 -16 69
1 23 -3 45 -8 48 -6 4 -7 -1 -3 -11 4 -11 2 -15 -4 -11 -7 4 -12 -14 -15 -49
-6 -67 -16 -75 -101 -80 -68 -4 -102 11 -117 51 -5 12 -26 36 -47 51 -21 15
-51 41 -67 56 -15 15 -33 28 -38 28 -17 0 2 -51 34 -90 16 -21 27 -43 24 -49
-5 -7 -1 -8 9 -5 11 5 18 0 22 -14 3 -12 12 -23 22 -25 14 -4 14 -5 -1 -6 -20
-1 -25 -21 -6 -21 6 0 8 -3 5 -6 -4 -4 -14 -1 -23 7 -10 8 -20 13 -23 12 -3
-1 -5 5 -3 13 3 16 -15 19 -20 3 -6 -17 -90 13 -96 34 -6 23 -18 22 -25 -3 -5
-20 -50 -29 -61 -12 -3 5 -15 51 -26 103 -12 51 -25 96 -30 99 -5 3 -16 45
-24 92 -20 112 -26 138 -36 138 -10 0 -40 -74 -40 -98 0 -10 -6 -27 -14 -38
-20 -29 -30 -95 -13 -88 9 3 13 -2 13 -15 -1 -11 3 -19 9 -18 5 1 9 6 7 10 -1
5 2 5 8 2 16 -10 -18 -45 -36 -38 -8 3 -11 9 -8 14 3 5 0 9 -5 9 -6 0 -11 10
-11 23 -1 20 -2 20 -11 5 -16 -28 -29 -21 -29 15 0 18 -11 57 -25 85 -14 29
-25 58 -25 65 0 7 -7 22 -15 33 -14 18 -14 18 -15 -8 0 -31 -14 -37 -24 -12
-3 9 -6 34 -6 57 0 31 3 38 10 27 13 -20 13 1 0 34 -5 15 -15 23 -22 21 -9 -4
-23 32 -46 122 -45 176 -61 257 -52 261 10 4 2 62 -11 79 -7 7 -9 17 -5 21 10
10 46 -36 46 -58 0 -10 7 -23 15 -30 8 -7 15 -19 15 -26 0 -8 4 -14 8 -14 11
0 30 -40 52 -109 l17 -53 7 81 c8 103 13 118 32 94 11 -15 13 -15 14 -3 0 13
1 13 11 0 8 -12 9 -11 5 5 -3 11 -8 53 -11 93 l-6 73 26 -17 c14 -9 25 -24 25
-33 0 -27 10 -31 41 -16 20 11 29 24 31 47 2 21 8 33 18 33 21 0 30 15 30 49
l0 29 25 -23 c14 -13 25 -29 25 -37 0 -7 5 -13 10 -13 6 0 10 8 10 18 0 9 11
39 25 66 14 27 25 57 25 65 0 31 48 153 69 175 12 12 21 26 21 32 0 5 9 20 19
34 16 20 21 22 35 11 9 -7 16 -25 17 -40 l0 -26 12 25 c6 14 16 28 21 32 7 5
6 23 -2 53 -15 55 -16 149 -2 140 6 -3 10 -28 10 -56 0 -27 4 -49 9 -49 12 0
25 105 15 121 -4 7 -11 60 -15 117 -8 117 -16 131 -87 162 -53 24 -58 24 -42
5 9 -11 9 -15 1 -15 -6 0 -14 7 -18 16 -3 9 -17 27 -29 40 -28 27 -32 91 -13
187 14 67 2 127 -36 183 -14 20 -25 43 -25 51 0 18 24 43 41 43 25 0 -2 64
-50 115 -27 28 -51 61 -55 73 -4 11 -16 24 -27 27 -36 12 -95 82 -145 170 -8
15 -22 20 -50 20 -22 1 -52 8 -69 17 -16 8 -40 19 -53 23 -21 6 -20 3 13 -50
l36 -56 -23 -19 c-24 -20 -49 -25 -62 -12 -4 4 -11 7 -14 7 -4 0 -33 13 -64
28 -31 15 -61 27 -65 27 -5 0 -14 14 -20 30 -8 21 -18 30 -35 30 -40 0 -110
26 -120 43 -8 15 -48 25 -48 12 0 -3 9 -23 20 -45 11 -22 20 -44 20 -49 0 -19
-55 9 -107 54 -50 44 -73 55 -73 35 0 -25 -32 -21 -63 8 -17 17 -68 64 -113
106 -44 42 -88 76 -97 76 -26 0 -30 8 70 -147 19 -29 40 -53 47 -53 8 0 17 -7
20 -16 9 -23 8 -24 -14 -24 -13 0 -26 -13 -38 -37 -16 -36 -20 -38 -57 -35
-30 3 -46 11 -66 34 l-26 31 -15 -22 c-17 -24 -46 -25 -64 -1 -17 22 -78 18
-82 -6 -6 -32 -18 -36 -58 -17 -21 10 -41 21 -44 24 -12 15 -50 28 -63 23 -8
-3 -41 7 -74 21 -129 60 -153 65 -153 31 0 -13 7 -29 15 -36 21 -18 19 -29
-10 -42 -35 -16 -35 -39 2 -71 18 -16 30 -33 27 -38 -3 -6 -1 -15 4 -22 14
-19 21 -56 11 -63 -5 -3 -9 -14 -9 -25 0 -10 -9 -24 -20 -31 -11 -7 -20 -16
-20 -21 0 -4 5 -5 10 -2 9 6 15 -17 10 -40 -7 -31 -7 -41 0 -50 5 -5 11 -38
14 -72 4 -34 10 -73 15 -85 4 -13 11 -36 15 -51 l7 -28 -43 27 c-24 15 -53 38
-64 52 -20 25 -22 25 -38 9 -16 -16 -16 -18 -1 -23 9 -4 15 -14 13 -23 -1 -9
1 -22 5 -28 6 -10 -1 -13 -27 -13 -30 0 -44 9 -85 50 -47 48 -51 50 -106 50
l-57 0 6 -35 c4 -19 18 -59 31 -90 14 -30 25 -57 25 -60 0 -3 0 -17 0 -32 1
-24 2 -25 11 -10 15 25 42 21 73 -12 16 -16 35 -27 42 -24 8 3 14 -1 14 -8 0
-10 -19 -15 -70 -16 -51 -2 -70 1 -70 10 0 9 -11 12 -34 9 -21 -2 -44 3 -60
13 -14 10 -32 15 -38 12 -22 -8 -40 -88 -28 -127 23 -80 -3 -170 -50 -170 -27
0 -30 -9 -23 -74 5 -48 10 -59 29 -67 13 -4 24 -13 24 -18 0 -5 3 -18 7 -28 5
-14 -1 -12 -29 10 -43 32 -58 34 -58 7 0 -11 -5 -20 -11 -20 -6 0 -9 12 -8 28
4 37 -18 66 -63 82 -61 22 -87 7 -120 -70 -38 -92 -36 -92 -170 -53 -14 4 -18
-1 -18 -19 0 -13 4 -28 10 -34 18 -18 14 -59 -13 -116 -15 -31 -32 -60 -39
-64 -13 -8 -112 91 -175 176 -22 30 -60 69 -83 85 -23 17 -49 38 -58 48 -9 9
-21 17 -26 17 -21 0 -216 105 -216 116 0 39 218 18 273 -26 7 -5 28 -22 47
-38 36 -30 70 -46 70 -35 0 13 -92 92 -126 108 -19 9 -34 19 -34 23 0 15 24
32 46 32 20 0 74 -44 74 -60 0 -5 33 -24 73 -45 45 -22 88 -53 114 -83 59 -66
55 -32 -8 62 -53 79 -56 98 -20 130 17 16 21 16 55 0 20 -10 38 -26 42 -36 7
-23 121 -111 134 -103 19 12 10 70 -26 178 -21 59 -34 110 -31 113 3 3 21 -5
39 -19 18 -14 61 -33 95 -42 52 -15 65 -15 79 -4 22 18 10 71 -32 140 -39 65
-42 84 -14 101 13 9 20 24 20 46 0 30 -17 68 -116 262 -12 25 -44 71 -71 102
-74 88 -113 145 -129 191 -34 98 -64 128 -93 93 -14 -17 -6 -58 21 -101 19
-32 24 -90 8 -100 -6 -4 -4 -15 6 -30 16 -25 13 -75 -5 -75 -24 0 -139 81
-175 123 -23 26 -74 82 -114 124 -41 42 -84 92 -97 112 -12 20 -48 65 -79 100
-31 36 -56 69 -56 76 0 6 -12 24 -27 41 -16 16 -44 52 -63 79 -55 76 -190 208
-329 320 -69 56 -100 78 -282 200 -41 27 -81 57 -89 65 -13 14 -84 46 -215 98
-22 9 -49 23 -60 33 -22 18 -170 89 -187 89 -6 0 -29 -19 -52 -43z m823 -1012
c6 3 11 1 11 -4 0 -19 -26 -12 -46 12 l-19 22 22 -18 c12 -11 27 -16 32 -12z
m286 -205 c3 -5 1 -10 -4 -10 -6 0 -11 5 -11 10 0 6 2 10 4 10 3 0 8 -4 11
-10z m-266 -40 c23 -24 43 -32 90 -38 40 -6 71 -17 95 -35 19 -15 39 -27 45
-27 17 0 13 18 -6 28 -15 9 -14 11 5 28 12 9 19 21 16 25 -2 4 4 6 13 5 9 -2
19 -8 21 -14 2 -7 8 -12 13 -12 6 0 8 4 5 8 -9 14 53 1 65 -14 11 -14 10 -15
-13 -18 -6 0 -13 -7 -16 -14 -5 -15 29 -13 40 3 4 5 6 0 5 -13 -1 -13 -5 -18
-10 -13 -5 5 -16 7 -23 4 -8 -3 -16 2 -20 10 -3 9 -16 14 -35 12 -29 -2 -54
-15 -30 -15 7 0 19 -6 27 -14 12 -13 11 -15 -6 -21 -27 -9 -25 -24 3 -18 18 4
19 3 7 -6 -13 -9 -13 -11 2 -11 9 0 24 -7 33 -17 18 -17 75 -26 75 -11 0 4 8
8 17 8 15 0 15 -2 -2 -14 -11 -8 -26 -11 -35 -8 -10 3 -9 -1 5 -14 11 -11 31
-21 45 -22 20 -1 22 0 10 9 -12 9 -11 10 7 6 12 -3 27 1 33 8 5 6 27 12 47 11
32 -1 41 -7 70 -49 19 -27 32 -52 28 -55 -4 -4 -63 -8 -133 -9 -165 -2 -190
-7 -203 -40 -8 -22 -6 -30 17 -54 15 -16 59 -41 98 -56 77 -30 88 -39 82 -66
-2 -9 0 -14 5 -11 5 3 12 -1 15 -10 9 -22 31 -27 60 -11 15 8 31 12 36 9 11
-7 10 -34 -1 -34 -4 0 -26 -14 -47 -31 -32 -25 -40 -28 -42 -14 -2 9 2 23 9
31 10 13 10 17 -2 24 -10 7 -16 4 -21 -10 -15 -40 -173 -82 -274 -73 -46 4
-77 0 -130 -16 -38 -13 -94 -29 -124 -37 -121 -34 -198 -57 -260 -80 -36 -13
-90 -31 -120 -40 -30 -10 -95 -34 -145 -54 -49 -21 -117 -48 -150 -61 -56 -21
-112 -44 -213 -90 -23 -10 -47 -19 -52 -19 -20 0 -120 -53 -120 -64 0 -6 4
-17 9 -25 8 -12 12 -13 26 -1 13 11 19 9 41 -11 20 -18 22 -24 10 -31 -26 -15
-76 3 -98 36 -12 17 -23 33 -24 34 -1 2 -28 -5 -58 -17 -31 -11 -56 -16 -56
-11 0 6 7 10 15 10 18 0 20 21 3 38 -22 22 -132 7 -287 -38 -87 -25 -126 -19
-65 9 21 10 65 31 96 45 32 15 70 40 86 55 34 35 89 64 103 55 6 -3 13 3 16
15 6 23 7 23 106 25 46 1 70 5 76 15 6 10 19 12 44 7 37 -7 87 7 87 24 0 7
-17 9 -47 5 -27 -4 -59 -8 -73 -9 -14 -1 -32 -5 -40 -8 -54 -22 -75 -17 -112
25 -21 23 -38 44 -38 47 1 18 40 51 65 54 17 3 38 7 48 11 10 4 17 3 17 -4 0
-14 45 -14 73 0 l21 12 -22 8 c-32 12 -27 26 15 40 40 13 120 67 115 76 -10
16 33 23 91 13 35 -5 97 -9 138 -8 63 2 77 5 96 25 19 20 29 23 58 17 36 -6
119 25 140 54 8 10 17 11 37 3 31 -12 40 -4 45 41 3 33 3 33 -67 12 -29 -9
-62 -18 -73 -20 -11 -2 -34 -8 -52 -14 -43 -14 -189 -37 -204 -32 -21 7 -34
42 -21 58 22 26 -29 32 -82 9 -35 -14 -17 12 34 50 29 22 60 47 69 55 48 44
104 73 166 85 18 4 36 11 39 17 4 6 -1 8 -15 3 -15 -4 -19 -3 -16 7 7 16 88
78 103 78 6 0 30 9 55 19 25 11 64 21 88 22 49 3 91 18 84 30 -3 4 -20 3 -38
-2 -17 -5 -33 -9 -34 -9 -2 0 -3 9 -3 20 0 22 34 39 193 96 26 9 47 21 47 25
0 19 30 8 59 -21z m230 -18 c-1 -15 -2 -15 -6 1 -2 9 -9 14 -15 11 -7 -4 -8
-2 -4 5 10 15 26 4 25 -17z m-1516 -87 c-3 -9 -8 -14 -10 -11 -3 3 -2 9 2 15
9 16 15 13 8 -4z m1696 -17 c11 -15 10 -16 -16 -12 l-28 4 25 -14 25 -14 -28
1 c-31 2 -34 13 -9 37 9 10 17 17 17 16 1 0 6 -9 14 -18z m-62 -6 c0 -10 -9
-18 -19 -18 -23 0 -23 5 0 22 22 17 21 17 19 -4z m113 -12 c0 -5 -5 -10 -12
-10 -9 0 -9 -3 -1 -11 6 -6 9 -19 6 -28 -5 -13 -3 -14 8 -3 20 19 31 14 17 -7
-8 -13 -16 -17 -24 -11 -6 6 -14 6 -19 2 -4 -4 -3 3 4 15 7 14 7 24 1 28 -11
7 -2 35 11 35 5 0 9 -4 9 -10z m190 -464 c0 -2 -9 -6 -20 -9 -11 -3 -20 -1
-20 4 0 5 9 9 20 9 11 0 20 -2 20 -4z m1795 -215 c16 -29 81 -91 112 -107 23
-13 34 -7 46 29 10 28 46 21 53 -10 10 -48 37 -104 48 -100 6 2 19 20 29 40
10 20 24 37 30 37 27 -1 56 -40 87 -120 19 -47 41 -91 49 -97 10 -9 15 -30 14
-64 0 -35 6 -63 19 -85 25 -42 37 -43 45 -4 3 17 9 30 13 30 4 0 11 17 15 38
l8 37 9 -27 c11 -31 34 -37 41 -10 3 11 5 7 6 -9 0 -15 16 -60 35 -100 19 -41
37 -85 41 -97 7 -23 7 -23 -19 -7 -14 10 -26 13 -26 7 0 -25 -121 -19 -178 10
-26 14 -56 62 -73 118 -7 22 -16 40 -21 40 -4 0 -19 24 -33 53 -32 70 -107
147 -134 140 -18 -5 -21 -1 -21 31 0 39 -39 91 -62 84 -7 -3 -23 -25 -36 -51
-28 -57 -53 -74 -75 -49 -15 18 -57 206 -63 282 l-3 45 15 -30 c8 -16 21 -41
29 -54z m-3855 -205 c0 -10 -70 -46 -90 -46 -27 0 -22 21 11 37 23 12 79 18
79 9z m1850 -44 c16 -9 30 -19 30 -22 0 -7 -75 -30 -97 -30 -36 0 -193 34
-193 41 0 5 12 15 28 24 36 21 188 12 232 -13z m1899 -242 c13 -86 25 -105 42
-67 7 15 16 27 20 27 5 0 17 10 28 21 l20 22 17 -37 c17 -34 17 -38 -1 -93
-35 -105 -35 -102 -16 -95 9 3 30 14 48 23 31 18 32 18 48 -8 15 -23 19 -24
27 -10 12 22 24 21 49 -2 17 -16 19 -23 10 -62 -6 -24 -11 -55 -11 -68 0 -20
2 -21 15 -11 8 7 20 30 27 52 8 28 20 43 37 50 14 6 33 14 43 19 13 6 20 0 32
-26 25 -51 49 -61 91 -36 29 17 35 17 45 6 9 -11 9 -26 0 -62 -11 -41 -10 -54
4 -87 10 -24 14 -51 10 -71 -3 -19 -1 -35 5 -39 6 -4 11 -15 11 -25 0 -24 29
-81 41 -81 5 0 9 6 9 13 0 8 24 26 54 42 l54 28 41 -32 c23 -18 48 -42 56 -54
l15 -21 0 22 c0 29 27 39 48 18 15 -14 14 -17 -7 -37 -12 -12 -19 -24 -16 -27
4 -4 13 2 21 12 22 31 29 12 29 -82 0 -83 -1 -87 -22 -90 -13 -2 -23 -8 -23
-13 0 -12 41 -88 57 -106 6 -7 15 -35 18 -61 3 -26 12 -75 20 -109 19 -78 19
-127 1 -142 -17 -14 -94 -6 -115 13 -16 13 -71 30 -71 22 0 -3 7 -12 16 -21
27 -26 9 -28 -23 -1 -16 13 -35 25 -43 27 -18 4 -80 -28 -80 -41 0 -4 -24 -22
-54 -39 -29 -17 -59 -38 -66 -46 -11 -14 -10 -14 16 -5 16 6 38 19 49 29 22
20 59 41 72 41 15 0 -52 -51 -97 -74 -25 -12 -61 -32 -80 -44 -44 -28 -70 -30
-47 -4 9 10 16 29 16 42 1 14 1 37 1 53 0 15 7 39 16 52 24 37 12 41 -46 17
-43 -18 -55 -19 -73 -9 -12 7 -23 12 -25 13 -1 0 2 14 7 30 29 91 50 175 55
223 l5 54 -22 -21 c-19 -18 -24 -18 -36 -5 -13 15 -41 129 -41 170 0 18 -6 23
-25 23 -15 0 -31 9 -40 23 -19 30 -45 167 -45 243 0 58 -19 108 -36 92 -4 -4
-9 -30 -12 -58 -4 -48 -14 -62 -27 -40 -4 6 -21 17 -40 24 -39 17 -55 42 -55
88 2 120 -26 247 -63 296 -10 13 -26 202 -25 297 l0 50 13 -70 c8 -38 19 -104
24 -145z m-2060 183 c27 -8 96 -13 177 -13 116 0 141 -3 184 -22 27 -12 50
-25 50 -29 0 -5 -16 -16 -35 -25 -41 -19 -42 -26 -15 -64 24 -34 14 -44 -28
-28 -17 7 -34 9 -37 6 -4 -3 5 -28 19 -54 14 -27 39 -80 57 -119 17 -38 41
-80 52 -93 15 -16 18 -25 10 -33 -15 -15 -29 -5 -57 40 -17 27 -38 43 -73 56
-26 10 -52 21 -58 26 -5 4 -64 30 -130 59 -66 28 -138 60 -161 70 -69 33 -144
22 -210 -31 -22 -17 -54 -37 -71 -44 -18 -8 -33 -21 -33 -30 0 -15 8 -16 53
-10 28 4 79 16 112 27 106 34 123 37 129 21 6 -16 -29 -52 -81 -84 -42 -26
-42 -45 0 -57 60 -17 343 1 368 24 13 11 19 12 24 3 5 -7 0 -16 -11 -23 -24
-14 -22 -13 -101 -15 -73 -1 -74 -10 -3 -30 44 -13 130 -67 130 -82 0 -5 -12
-8 -27 -7 -16 0 -64 -2 -108 -6 -44 -3 -121 -2 -172 2 -50 4 -89 4 -87 0 3 -5
32 -8 65 -8 32 0 59 -4 59 -9 0 -12 98 -61 121 -61 10 0 19 -5 21 -10 2 -6 28
-13 58 -17 78 -8 93 -18 53 -35 -24 -10 -30 -17 -23 -28 6 -8 10 -20 10 -26 0
-13 -159 -34 -254 -34 -66 0 -82 10 -48 29 11 6 -33 8 -138 6 -85 -3 -147 -2
-137 1 43 14 6 21 -133 28 -195 8 -207 11 -215 46 -10 45 -52 59 -200 64 -88
3 -146 10 -178 21 l-49 18 69 29 c37 16 84 35 103 43 19 7 61 24 92 39 31 14
61 26 65 26 17 0 178 83 185 95 5 7 17 11 27 8 11 -3 32 4 48 15 52 37 143 92
152 92 5 0 14 7 21 15 7 8 24 15 38 15 38 0 105 21 127 41 11 10 38 26 60 35
l40 17 -37 11 c-20 6 -43 17 -50 24 -6 6 -25 12 -40 12 -21 0 -28 5 -28 19 0
18 33 38 53 33 4 -1 7 2 7 7 0 23 118 25 189 4z m-1359 -88 c0 -7 -19 -23 -42
-35 -24 -12 -65 -37 -93 -55 -125 -81 -149 -89 -126 -47 18 33 101 101 117 95
8 -3 14 -1 14 5 0 14 101 61 117 55 7 -3 13 -11 13 -18z m609 -254 c22 -14
-44 -39 -119 -45 l-65 -5 50 18 c28 10 61 23 75 29 31 13 41 14 59 3z m1016
-109 c-3 -3 -11 0 -18 7 -9 10 -8 11 6 5 10 -3 15 -9 12 -12z m8 -326 c23 -18
21 -28 -5 -24 -13 2 -24 11 -26 21 -4 20 6 21 31 3z m1264 -110 c-5 -15 -47
-20 -61 -6 -8 8 -7 13 2 19 18 11 64 1 59 -13z m-1349 -173 c10 -14 10 -19 0
-22 -7 -2 -15 -7 -18 -11 -3 -4 -27 3 -54 15 -44 20 -47 24 -30 34 25 15 86 6
102 -16z m2007 -120 c-3 -19 -13 -37 -21 -40 -9 -3 -14 -19 -14 -42 0 -24 -7
-42 -20 -54 -11 -9 -20 -25 -20 -36 0 -10 -9 -30 -21 -45 -16 -20 -20 -35 -15
-59 4 -18 9 -48 12 -67 l5 -35 -23 36 c-56 88 -83 116 -103 108 -33 -13 -45
-10 -45 11 0 11 5 20 10 20 6 0 10 7 10 15 0 8 -4 15 -9 15 -7 0 -46 70 -69
122 -2 5 6 8 18 8 12 0 18 5 15 10 -10 16 15 12 31 -5 24 -23 29 -19 54 41 21
51 24 55 36 39 14 -18 9 -40 -6 -30 -4 3 -10 -2 -14 -10 -3 -9 3 -19 14 -25
13 -7 17 -16 13 -28 -9 -24 39 37 57 72 8 16 28 43 44 60 l28 31 20 -39 c14
-27 18 -48 13 -73z m-2075 46 c0 -14 -27 -10 -33 5 -4 10 0 12 14 9 10 -3 19
-9 19 -14z m854 -394 c3 -9 0 -15 -8 -15 -7 0 -13 7 -13 15 0 8 4 15 8 15 4 0
9 -7 13 -15z m1790 -63 c-17 -15 -36 -37 -42 -47 -9 -16 -11 -17 -12 -4 0 9 9
24 20 34 11 10 20 24 20 31 0 12 30 25 39 17 3 -2 -9 -16 -25 -31z m802 -22
c0 -12 -4 -16 -9 -11 -5 5 -6 14 -3 20 10 15 12 14 12 -9z m1175 -27 c58 -14
72 -21 91 -50 13 -18 37 -38 55 -43 30 -10 50 -33 81 -90 34 -62 19 -233 -28
-337 -22 -48 -76 -113 -94 -113 -7 0 -23 -12 -37 -26 -37 -40 -85 -56 -193
-64 -93 -7 -102 -6 -155 18 -31 14 -68 35 -82 46 -14 12 -47 33 -73 49 -40 23
-53 39 -81 100 -45 94 -53 151 -26 193 22 37 44 42 177 44 110 1 154 -18 171
-75 10 -30 9 -37 -7 -45 -32 -17 -46 -90 -18 -90 6 0 26 -11 44 -25 45 -34 85
-32 129 6 46 41 63 75 71 141 8 74 8 75 48 82 52 10 62 35 36 93 -21 47 -98
128 -152 161 -16 9 -28 21 -28 27 0 5 -4 4 -9 -4 -6 -10 -21 -11 -61 -6 -36 5
-48 10 -39 16 22 14 105 10 180 -8z m-4356 -51 c10 -7 19 -32 12 -32 -2 0 -12
9 -22 20 -17 19 -11 28 10 12z m185 -212 c0 -5 8 -10 17 -10 12 0 14 -3 6 -11
-14 -14 -63 -1 -63 17 0 8 9 14 20 14 11 0 20 -4 20 -10z m722 -39 c64 -7 65
-8 70 -36 2 -14 -3 -21 -19 -23 -26 -4 -29 -12 -11 -30 9 -9 8 -16 -5 -30 -23
-25 -22 -29 13 -94 30 -55 31 -56 69 -51 34 5 39 2 45 -18 l7 -24 16 23 c8 12
20 22 25 22 5 0 18 9 30 20 20 18 23 19 40 3 15 -13 18 -14 18 -2 0 8 -4 19
-10 25 -6 6 -4 25 6 54 11 30 14 61 10 93 -4 26 -4 47 0 47 11 0 53 -49 69
-81 20 -38 40 -37 67 6 30 45 49 52 70 25 14 -18 17 -37 13 -105 -2 -47 -7
-90 -10 -96 -12 -19 27 7 54 36 28 30 35 27 27 -13 -10 -44 -99 -126 -183
-168 -64 -32 -87 -38 -159 -42 -70 -4 -97 0 -168 22 -47 14 -88 31 -91 36 -3
6 -15 10 -25 10 -23 0 -105 78 -142 135 -104 162 -110 177 -87 228 8 17 17 23
32 20 12 -3 36 3 52 12 21 11 43 14 75 10 25 -4 71 -10 102 -14z m3718 -481
c0 -5 -2 -10 -4 -10 -3 0 -8 5 -11 10 -3 6 -1 10 4 10 6 0 11 -4 11 -10z m-23
-42 c-3 -8 -6 -5 -6 6 -1 11 2 17 5 13 3 -3 4 -12 1 -19z m-5527 -2827 c0 -4
-12 -21 -27 -36 -25 -24 -28 -25 -32 -9 -2 10 2 20 8 22 7 2 17 10 24 18 14
15 27 18 27 5z m833 -261 c3 -11 1 -20 -4 -20 -5 0 -9 9 -9 20 0 11 2 20 4 20
2 0 6 -9 9 -20z"/>
<path d="M1511 8780 c-45 -42 -43 -56 3 -19 22 17 53 59 44 59 -2 0 -23 -18
-47 -40z"/>
<path d="M1865 8790 c-18 -19 -17 -20 3 -20 15 0 22 6 22 20 0 11 -2 20 -3 20
-2 0 -12 -9 -22 -20z"/>
<path d="M1923 8776 c-3 -5 -1 -6 5 -2 7 4 12 2 12 -5 0 -8 3 -9 13 0 8 6 18
7 22 3 5 -4 5 -2 1 5 -7 14 -45 13 -53 -1z"/>
<path d="M1440 8730 c-9 -6 -10 -10 -3 -10 6 0 15 5 18 10 8 12 4 12 -15 0z"/>
<path d="M1490 8588 c0 -4 14 -8 30 -8 17 0 30 2 30 4 0 2 -13 6 -30 8 -16 3
-30 1 -30 -4z"/>
<path d="M1207 8559 c7 -7 15 -10 18 -7 3 3 -2 9 -12 12 -14 6 -15 5 -6 -5z"/>
<path d="M2030 7000 c-23 -7 -22 -8 13 -15 21 -4 41 -5 44 -1 4 3 -1 6 -9 6
-9 0 -18 4 -20 8 -1 5 -14 5 -28 2z"/>
<path d="M8240 10076 c-69 -28 -140 -60 -159 -69 -19 -9 -38 -17 -44 -17 -8 0
-138 -55 -319 -136 -43 -19 -80 -34 -83 -34 -3 0 -42 -19 -88 -41 -161 -82
-177 -89 -189 -89 -7 0 -26 -7 -43 -16 -16 -9 -46 -22 -65 -29 -19 -7 -61 -24
-92 -39 -31 -14 -61 -26 -67 -26 -11 0 -32 -9 -161 -68 -47 -22 -103 -45 -125
-52 -22 -7 -46 -17 -52 -23 -7 -5 -13 -6 -13 -2 0 4 -6 3 -12 -2 -7 -5 -27
-10 -44 -12 -93 -7 -137 -37 -158 -108 -6 -18 -2 -23 26 -29 42 -11 62 -11 68
-3 3 4 18 5 33 2 20 -4 25 -8 16 -14 -9 -5 -4 -11 17 -20 16 -6 43 -18 59 -25
17 -7 53 -16 80 -18 28 -3 64 -8 81 -12 20 -4 42 0 62 10 45 23 49 20 17 -14
-16 -16 -34 -30 -41 -30 -17 0 -115 -123 -110 -137 3 -8 -1 -10 -11 -6 -10 4
-14 2 -10 -4 7 -11 -12 -37 -31 -45 -5 -1 -29 -32 -54 -68 -24 -36 -58 -85
-75 -110 -17 -25 -34 -60 -37 -77 -5 -30 -3 -33 18 -33 13 0 29 7 36 15 40 48
39 -12 0 -101 -32 -70 -31 -80 9 -86 24 -3 24 -3 -13 -51 -20 -26 -36 -49 -36
-52 0 -3 10 -5 21 -5 21 0 21 -3 14 -77 -4 -50 -19 -112 -41 -172 -20 -51 -33
-95 -31 -97 2 -3 30 -1 62 4 46 8 63 15 78 37 11 14 50 41 86 60 36 18 81 40
99 50 18 9 35 15 38 12 2 -2 -15 -26 -39 -53 -39 -44 -97 -131 -97 -146 0 -4
8 -4 19 -1 41 11 32 -20 -23 -76 -58 -58 -69 -82 -38 -80 28 1 48 12 89 49 98
89 221 148 316 152 31 1 57 5 57 9 0 4 13 12 28 18 41 17 183 -2 280 -38 42
-16 102 -32 132 -36 52 -7 54 -7 40 10 -12 14 -12 19 -2 23 29 9 71 54 77 82
4 17 11 30 16 30 6 0 7 5 4 10 -3 6 -17 10 -31 10 -13 0 -23 3 -23 8 5 31 -3
42 -31 42 -16 0 -30 5 -30 11 0 5 -4 8 -9 5 -11 -7 -23 22 -15 35 3 5 0 9 -6
9 -8 0 -10 -9 -6 -26 5 -18 3 -24 -5 -18 -7 4 -9 3 -6 -2 3 -6 2 -16 -2 -22
-6 -10 -25 -10 -91 2 -46 8 -89 12 -96 9 -8 -3 -14 -1 -14 5 0 6 6 13 13 15 7
3 5 6 -5 6 -10 1 -18 -6 -18 -15 0 -12 -6 -15 -22 -9 -47 14 -141 17 -199 6
-34 -7 -63 -10 -65 -8 -11 11 88 47 112 41 21 -5 27 -2 37 25 9 26 16 31 32
26 11 -4 34 -7 50 -9 17 -1 36 -5 42 -9 6 -4 13 -1 16 7 4 9 -4 13 -29 11 -26
-1 -33 2 -29 13 3 7 5 18 5 24 0 6 7 8 15 5 17 -7 30 9 15 18 -12 8 -52 -19
-43 -29 4 -4 1 -11 -7 -16 -24 -16 -30 -11 -20 14 5 13 6 27 3 30 -3 3 1 8 10
12 9 3 19 22 23 41 5 29 9 32 16 19 5 -9 13 -14 19 -11 5 4 14 -5 20 -19 7
-14 17 -23 23 -20 6 2 4 -1 -6 -8 -15 -11 -14 -13 9 -25 38 -19 40 -9 7 34
-27 35 -42 89 -21 76 4 -3 6 -12 2 -21 -5 -13 -2 -12 15 3 24 22 26 37 3 28
-10 -4 -14 -2 -10 4 5 7 0 9 -13 6 -16 -4 -19 -2 -14 13 4 11 4 16 -1 12 -4
-4 -14 -3 -22 3 -7 6 -13 9 -13 6 0 -3 -14 8 -31 24 -17 16 -35 26 -40 23 -5
-3 -9 -1 -9 4 0 5 -16 17 -35 28 -48 26 -44 35 13 28 81 -11 142 -30 287 -90
l140 -57 133 -2 132 -2 -45 45 c-26 25 -44 51 -41 57 2 7 -11 28 -30 46 -19
18 -34 39 -34 46 0 8 -7 16 -15 19 -8 4 -29 28 -47 55 -17 27 -35 50 -40 50
-4 1 -12 3 -18 4 -5 1 -19 3 -29 4 -11 0 -42 19 -70 41 -56 45 -61 61 -34 121
l16 37 21 -31 c13 -19 32 -33 46 -35 24 -2 24 -2 -7 26 -38 32 -42 52 -13 52
12 0 57 -37 113 -95 78 -79 98 -95 123 -94 26 1 27 2 6 8 -28 7 -112 89 -112
108 0 8 -22 36 -49 63 -27 27 -47 51 -44 54 3 2 0 21 -7 41 -9 26 -9 40 -2 47
6 6 8 24 5 41 -5 23 -3 28 7 22 10 -6 11 -2 6 19 -4 15 -2 26 4 26 9 0 16 -57
12 -103 -5 -54 158 -258 227 -284 35 -13 37 -9 16 27 -20 35 -20 57 0 40 38
-32 5 72 -47 148 -16 23 -36 63 -44 87 -15 42 -14 47 11 116 14 39 30 79 35
88 8 13 9 13 10 -6 0 -12 -4 -25 -10 -28 -15 -9 -11 -64 9 -123 22 -64 28 -70
44 -48 11 15 18 7 56 -69 l43 -86 18 38 c10 21 28 61 40 88 12 28 35 77 50
110 45 95 60 136 60 159 0 12 6 31 14 42 8 11 17 42 21 69 4 28 13 61 20 75 7
14 16 50 19 80 3 30 13 100 21 155 9 55 20 125 24 155 5 30 12 72 16 93 4 20
6 37 4 36 -2 -1 -60 -24 -129 -53z m-430 -715 c11 -22 17 -47 14 -55 -7 -18
-24 -22 -24 -6 0 6 -9 30 -20 52 -24 50 -24 48 -5 48 8 0 24 -18 35 -39z m67
-343 c-3 -8 -6 -5 -6 6 -1 11 2 17 5 13 3 -3 4 -12 1 -19z m-967 -456 c0 -5
-7 -9 -15 -9 -8 0 -12 4 -9 9 3 4 9 8 15 8 5 0 9 -4 9 -8z m440 -30 c0 -5 -7
-9 -15 -9 -8 0 -12 4 -9 9 3 4 9 8 15 8 5 0 9 -4 9 -8z m80 -59 c0 -26 -16
-12 -18 15 -1 21 0 23 8 12 5 -8 10 -21 10 -27z m-94 -8 c-8 -8 -19 -15 -25
-15 -6 0 -11 -5 -11 -12 0 -6 3 -8 7 -5 3 4 12 2 19 -4 13 -11 38 -3 30 9 -2
4 2 16 10 27 8 10 14 14 14 9 0 -6 -3 -14 -7 -18 -4 -3 -8 -16 -10 -28 -6 -39
-36 -49 -53 -17 -9 15 -15 18 -25 9 -9 -7 -15 -8 -19 -1 -4 6 10 21 31 35 43
28 62 33 39 11z m-218 -8 c18 11 53 1 41 -12 -11 -10 -69 -14 -69 -4 0 5 -3 8
-7 8 -5 -1 -15 -1 -23 1 -11 1 -9 4 5 9 12 5 23 4 27 -3 5 -8 12 -8 26 1z
m228 -86 c-5 -8 -56 -3 -56 5 0 2 14 4 31 4 16 0 28 -4 25 -9z"/>
<path d="M7910 8646 c0 -18 21 -36 43 -36 10 0 51 -22 90 -50 41 -29 82 -50
96 -50 l26 0 -25 20 c-14 11 -45 27 -70 36 -25 10 -56 27 -70 39 -36 32 -90
57 -90 41z"/>
<path d="M7476 8455 c-3 -8 -1 -15 4 -15 13 0 22 18 11 24 -5 3 -11 -1 -15 -9z"/>
<path d="M7415 8410 c-3 -5 -1 -10 4 -10 6 0 11 5 11 10 0 6 -2 10 -4 10 -3 0
-8 -4 -11 -10z"/>
<path d="M7620 8376 c0 -2 7 -7 16 -10 8 -3 12 -2 9 4 -6 10 -25 14 -25 6z"/>
<path d="M7661 8354 c0 -11 3 -14 6 -6 3 7 2 16 -1 19 -3 4 -6 -2 -5 -13z"/>
<path d="M7549 8348 c-5 -18 -6 -38 -1 -34 7 8 12 36 6 36 -2 0 -4 -1 -5 -2z"/>
<path d="M7397 8283 c3 -7 9 -10 14 -7 14 8 11 21 -5 21 -8 0 -12 -6 -9 -14z"/>
<path d="M7356 8275 c-3 -8 -1 -15 4 -15 6 0 10 5 10 11 0 5 5 7 12 3 7 -4 8
-3 4 4 -10 16 -23 15 -30 -3z"/>
<path d="M7445 8280 c3 -5 11 -10 16 -10 6 0 7 5 4 10 -3 6 -11 10 -16 10 -6
0 -7 -4 -4 -10z"/>
<path d="M7520 8286 c0 -2 7 -7 16 -10 8 -3 12 -2 9 4 -6 10 -25 14 -25 6z"/>
<path d="M7620 8259 c0 -5 5 -7 10 -4 6 3 10 8 10 11 0 2 -4 4 -10 4 -5 0 -10
-5 -10 -11z"/>
<path d="M7854 7905 c3 -21 16 -31 16 -12 0 9 -4 18 -9 21 -5 4 -8 -1 -7 -9z"/>
<path d="M7530 7902 c0 -12 47 -51 77 -65 25 -11 25 -12 -23 -25 -27 -8 -70
-17 -96 -19 -29 -3 -48 -10 -48 -17 0 -33 93 -80 180 -91 68 -9 210 -12 210
-4 0 3 -10 11 -23 18 -13 7 -31 28 -41 46 -10 19 -30 39 -45 45 -74 31 -91 50
-46 50 37 0 30 17 -12 31 -21 6 -44 16 -50 22 -7 5 -13 6 -13 1 0 -4 -5 -3
-12 4 -14 14 -58 16 -58 4z"/>
<path d="M5742 7550 c0 -14 2 -19 5 -12 2 6 2 18 0 25 -3 6 -5 1 -5 -13z"/>
<path d="M6330 7346 c-23 -20 -70 -96 -70 -111 0 -3 5 -3 10 0 6 4 -1 -20 -16
-52 -14 -32 -29 -67 -34 -78 -4 -11 -17 -29 -29 -39 -11 -11 -21 -24 -21 -29
0 -6 -7 -19 -17 -29 -12 -13 -20 -56 -29 -160 -8 -79 -17 -156 -20 -172 -6
-24 -4 -27 12 -22 18 5 19 0 16 -97 -4 -111 7 -120 28 -22 7 32 21 86 31 120
10 33 28 123 40 200 11 77 27 154 34 170 23 55 34 90 41 135 3 25 11 53 16 64
9 17 11 17 26 3 14 -15 14 -21 -1 -68 -24 -73 -22 -105 3 -50 11 24 20 48 20
55 0 6 7 25 16 41 10 19 14 43 10 65 -4 23 0 40 11 52 40 44 -31 67 -77 24z"/>
<path d="M5376 7047 c3 -10 9 -15 12 -12 3 3 0 11 -7 18 -10 9 -11 8 -5 -6z"/>
<path d="M5400 7005 c0 -14 2 -25 4 -25 2 0 6 11 8 25 3 14 1 25 -3 25 -5 0
-9 -11 -9 -25z"/>
<path d="M6087 6965 c3 -22 7 -42 9 -44 7 -8 24 12 23 27 0 14 -2 13 -9 -3 -8
-18 -9 -18 -9 5 -1 14 -6 32 -11 40 -6 10 -7 2 -3 -25z"/>
<path d="M6477 6464 c-3 -3 -19 -6 -36 -6 -22 -1 -36 -8 -43 -22 -6 -12 -17
-25 -25 -29 -7 -5 -11 -14 -7 -20 3 -7 -4 -1 -15 13 -11 14 -21 28 -21 33 0 4
-9 7 -19 7 -21 0 -78 -64 -105 -120 -18 -35 -76 -177 -76 -184 0 -2 21 2 48
10 26 8 57 12 69 9 16 -4 30 5 57 38 25 30 31 43 21 45 -9 2 -13 12 -11 25 3
18 9 22 40 20 20 -1 36 2 36 7 0 5 -7 6 -17 3 -11 -4 -14 -3 -9 6 4 6 20 10
34 9 18 -2 26 1 24 10 -1 8 2 11 8 7 5 -3 23 4 40 16 22 17 27 26 19 35 -6 8
-8 26 -4 45 5 24 4 30 -5 24 -8 -5 -11 -4 -6 3 4 6 13 9 22 5 8 -3 12 -8 10
-11 -7 -7 13 -32 26 -32 5 0 3 10 -3 23 -7 12 -10 24 -8 26 2 2 -5 5 -17 7
-12 2 -24 1 -27 -2z m-41 -70 c-3 -8 -10 -13 -15 -9 -5 3 -12 -5 -14 -17 -3
-20 -4 -20 -3 2 1 14 6 24 14 23 14 -3 15 6 2 27 -8 12 -10 12 -10 1 0 -8 -2
-12 -5 -9 -3 3 -3 13 1 22 6 15 8 15 21 -4 8 -12 12 -28 9 -36z"/>
<path d="M1910 6343 c0 -25 160 -168 180 -161 6 2 -9 18 -34 35 -41 29 -51 51
-33 69 16 16 5 30 -34 42 -22 7 -45 10 -51 6 -5 -4 -14 0 -19 7 -6 10 -9 11
-9 2z"/>
<path d="M6116 6094 c-5 -14 -4 -15 9 -4 17 14 19 20 6 20 -5 0 -12 -7 -15
-16z"/>
<path d="M5272 5719 c2 -7 10 -15 17 -17 8 -3 12 1 9 9 -2 7 -10 15 -17 17 -8
3 -12 -1 -9 -9z"/>
<path d="M2460 5610 c8 -5 20 -10 25 -10 6 0 3 5 -5 10 -8 5 -19 10 -25 10 -5
0 -3 -5 5 -10z"/>
<path d="M4940 5444 c-1 -44 -38 -101 -84 -128 -25 -15 -46 -33 -46 -41 0 -7
-12 -23 -27 -35 -24 -19 -38 -21 -155 -18 -117 2 -128 4 -134 21 -5 15 -11 8
-26 -34 -11 -30 -23 -69 -28 -87 -7 -28 -6 -31 6 -21 8 6 14 8 14 4 0 -5 8 -1
18 7 17 16 29 16 178 3 48 -5 74 -4 78 4 10 16 49 14 82 -4 16 -8 36 -15 45
-15 26 0 89 -29 149 -67 72 -47 100 -73 100 -93 0 -9 13 -34 30 -56 16 -21 30
-46 30 -54 1 -8 10 -28 20 -45 11 -16 27 -43 36 -60 9 -16 25 -40 34 -52 17
-22 17 -20 24 57 6 80 2 124 -17 148 -9 11 -3 16 16 13 17 -3 18 31 2 55 -15
23 -16 33 -6 65 6 21 20 44 29 51 10 7 21 21 25 31 5 12 17 17 47 17 22 0 57
7 77 15 19 8 51 15 70 15 l35 0 -19 29 c-10 16 -42 55 -71 86 -34 39 -50 64
-47 75 6 20 -62 87 -97 95 -55 12 -162 24 -270 31 -111 6 -118 6 -118 -12z"/>
<path d="M4511 5394 c0 -11 3 -14 6 -6 3 7 2 16 -1 19 -3 4 -6 -2 -5 -13z"/>
<path d="M4505 5310 c-21 -41 -19 -47 10 -20 25 24 33 50 15 50 -5 0 -16 -13
-25 -30z"/>
<path d="M6990 5286 c0 -2 9 -6 20 -9 11 -3 18 -1 14 4 -5 9 -34 13 -34 5z"/>
<path d="M4451 5073 c-1 -6 -4 -20 -7 -30 -5 -17 -5 -17 6 0 6 10 9 23 6 30
-3 9 -5 9 -5 0z"/>
<path d="M4340 4976 c-6 -9 -10 -21 -8 -28 3 -8 9 -4 17 10 15 28 9 39 -9 18z"/>
<path d="M5136 4405 c-18 -59 -107 -275 -162 -392 -19 -39 -34 -78 -34 -87 0
-9 -8 -20 -17 -24 -44 -19 -82 -50 -133 -108 -30 -35 -62 -65 -72 -67 -19 -5
-25 8 -8 18 5 3 15 16 20 28 15 29 -32 -23 -68 -78 -39 -59 -53 -93 -40 -101
7 -4 5 -10 -6 -16 -9 -5 -16 -14 -16 -21 0 -7 -25 -37 -55 -67 -30 -30 -58
-62 -60 -71 -3 -9 -35 -34 -70 -54 -49 -29 -73 -52 -101 -94 -28 -44 -55 -68
-122 -112 -73 -48 -89 -55 -102 -44 -30 27 -218 -40 -302 -107 l-38 -30 0 41
c0 23 -3 41 -7 41 -14 0 -93 -42 -93 -50 0 -13 -111 -84 -149 -95 -19 -6 -37
-17 -42 -25 -20 -39 -59 -128 -59 -134 0 -4 -12 -22 -27 -40 -43 -55 -64 -151
-70 -321 -4 -135 -2 -163 21 -275 26 -123 42 -174 94 -297 29 -67 37 -73 58
-46 13 17 14 17 20 -4 3 -12 14 -25 24 -28 10 -3 25 -20 34 -38 8 -18 27 -39
41 -47 15 -8 29 -26 32 -42 8 -42 29 -55 53 -33 11 10 20 24 20 32 0 31 65 -5
83 -46 l11 -26 4 27 c2 15 -4 38 -13 52 -11 17 -15 35 -11 53 4 19 4 23 -3 14
-11 -17 -27 -8 -34 18 -8 32 20 32 53 1 18 -17 62 -53 98 -82 37 -29 94 -76
128 -105 34 -29 64 -53 68 -53 3 0 4 10 1 23 -3 12 -7 45 -9 73 -3 29 -8 63
-12 78 -3 14 -2 32 4 39 6 6 10 14 10 17 -1 3 2 15 6 28 6 18 12 21 34 16 36
-9 62 -23 62 -33 0 -5 -10 -7 -22 -3 -22 5 -22 5 -5 -21 23 -35 318 -329 324
-323 3 3 -4 29 -15 58 -11 29 -32 100 -46 158 -15 58 -31 122 -37 143 -12 46
-6 59 12 25 7 -12 24 -34 38 -49 14 -14 33 -34 41 -45 8 -10 29 -37 47 -59 17
-22 41 -68 54 -103 15 -44 33 -72 58 -93 62 -51 62 -52 81 146 5 60 13 112 18
117 4 4 30 -21 57 -55 73 -89 131 -146 219 -213 96 -72 129 -94 134 -90 7 7
-30 70 -74 126 -34 45 -74 118 -74 136 0 2 9 -5 20 -16 25 -25 45 -27 32 -4
-5 9 -7 26 -4 37 4 17 3 18 -17 7 -13 -6 -25 -9 -27 -7 -3 3 8 12 25 20 35 17
41 14 41 -23 0 -41 19 -90 55 -140 18 -25 43 -69 56 -99 24 -57 60 -102 104
-131 27 -18 28 -18 50 8 35 43 45 68 45 114 0 46 13 68 40 68 18 0 60 -40 60
-57 0 -6 7 -14 16 -17 8 -3 13 -10 10 -15 -3 -5 1 -11 8 -14 8 -3 40 -40 71
-81 69 -92 105 -116 171 -116 27 0 69 -5 93 -11 27 -6 48 -6 53 -1 6 6 25 6
44 2 29 -7 33 -6 24 5 -6 8 -10 29 -8 47 3 33 4 33 48 30 48 -3 99 -31 140
-77 48 -54 77 -80 111 -100 19 -11 35 -29 37 -40 2 -12 17 -27 35 -35 17 -7
49 -25 72 -40 22 -14 61 -37 88 -51 54 -28 60 -45 18 -54 -21 -4 -28 -11 -24
-21 4 -10 0 -13 -13 -8 -14 4 -13 0 6 -16 14 -12 37 -32 51 -45 15 -13 35 -27
45 -33 27 -13 153 -37 160 -29 6 5 -55 82 -116 146 -22 23 -60 83 -60 95 0 3
10 3 23 0 49 -12 157 -16 157 -7 0 13 -37 44 -80 67 -89 49 -170 150 -212 266
-23 64 -28 92 -33 209 -2 57 -7 123 -11 147 -3 24 -2 44 2 44 5 0 29 -14 53
-30 24 -17 48 -30 53 -30 5 0 6 -5 3 -10 -3 -6 4 -10 17 -10 13 0 35 -7 51
-15 21 -11 44 -12 102 -6 42 5 82 14 90 21 18 15 20 69 3 105 -9 21 -8 32 5
60 38 80 111 84 218 11 35 -24 91 -58 124 -76 33 -18 83 -49 110 -69 28 -21
75 -55 105 -77 30 -21 68 -51 84 -67 61 -60 35 -9 -74 146 -11 16 -5 14 25 -9
186 -142 405 -300 490 -354 44 -29 180 -100 189 -100 3 0 -16 33 -42 73 -26
39 -78 125 -117 189 -41 69 -80 121 -93 128 -23 10 -24 14 -18 73 6 54 19 122
32 165 3 9 32 -15 77 -61 61 -64 81 -78 129 -93 32 -10 60 -15 63 -13 5 6 -7
75 -36 204 -9 44 -16 81 -14 83 2 2 21 -6 44 -17 29 -15 39 -17 35 -7 -5 14
-99 98 -174 156 -25 19 -52 40 -60 47 -8 7 -33 26 -55 42 -22 17 -45 35 -51
40 -6 5 -35 21 -64 36 -30 15 -77 49 -105 76 -29 27 -58 49 -65 49 -7 0 -10 3
-6 7 8 8 200 5 231 -3 23 -7 -26 39 -167 158 -54 44 -98 84 -98 89 0 4 -23 33
-51 64 -29 30 -50 57 -48 60 3 2 36 -9 75 -25 94 -37 164 -49 164 -26 0 23 52
21 74 -3 9 -10 34 -26 56 -36 22 -10 40 -22 40 -27 0 -4 5 -8 12 -8 6 0 21 -9
32 -19 25 -23 133 -61 173 -61 27 0 27 0 -17 45 -26 26 -38 45 -30 45 9 0 -6
21 -33 48 -26 26 -65 67 -86 92 -22 25 -43 41 -47 37 -4 -4 5 -20 19 -35 46
-48 28 -59 -27 -17 -18 14 -37 25 -42 25 -12 0 -104 92 -104 104 0 17 -102 98
-162 130 -152 79 -204 109 -211 122 -4 8 -31 26 -60 40 -29 15 -93 55 -143 90
l-92 63 -4 -31 c-7 -43 11 -108 35 -135 15 -17 17 -23 6 -23 -8 0 -19 8 -26
18 -6 10 -37 32 -68 47 -31 16 -58 33 -61 37 -3 4 -14 8 -24 8 -10 0 -21 9
-25 19 -3 11 -22 31 -41 46 -28 22 -38 24 -49 15 -21 -17 -19 -30 5 -30 11 0
20 -4 20 -10 0 -15 -15 -12 -43 10 -14 11 -32 20 -41 20 -8 0 -19 7 -24 16 -5
9 -12 15 -15 15 -4 -1 -11 -1 -16 -1 -6 0 -35 30 -65 68 -79 95 -97 114 -103
108 -3 -3 2 -17 11 -30 20 -32 21 -42 0 -25 -9 7 -31 42 -49 78 -39 76 -159
211 -220 246 -57 34 -61 31 -27 -12 36 -46 49 -101 26 -110 -24 -9 -104 27
-114 51 -7 17 -9 18 -9 4 -1 -27 -28 -21 -35 7 -4 14 -11 25 -16 25 -6 0 -10
7 -10 15 0 8 -18 26 -39 39 -22 14 -42 30 -46 36 -3 5 -15 10 -26 10 -10 0
-19 4 -19 8 0 18 12 20 38 6 15 -8 32 -14 38 -14 6 0 17 -7 24 -16 14 -16 80
-47 87 -41 2 2 -16 22 -40 44 -24 22 -47 48 -50 57 -4 9 -12 18 -19 20 -7 2
-42 12 -77 22 -65 18 -100 50 -85 76 4 7 4 10 -1 6 -4 -4 -14 -1 -22 7 -15 16
-43 20 -43 8 0 -11 90 -105 123 -128 l27 -20 -22 -65 c-19 -53 -27 -66 -47
-68 -21 -3 -23 -1 -17 22 7 28 5 29 -45 40 -40 9 -65 60 -74 151 -10 112 -13
117 -84 139 -40 12 -65 26 -73 40 -6 11 -27 41 -48 66 -20 25 -40 57 -43 71
-4 14 -16 36 -28 50 -12 13 -27 38 -35 55 -32 75 -146 184 -193 184 -5 0 -17
-25 -25 -55z m74 -587 c19 -29 44 -57 55 -63 31 -15 137 -87 159 -107 10 -9
33 -24 50 -32 17 -8 37 -28 44 -44 7 -18 23 -33 38 -36 14 -4 22 -11 19 -15
-3 -5 -1 -11 5 -13 18 -6 -2 -47 -28 -56 l-27 -9 29 -14 c16 -8 32 -21 36 -29
4 -8 17 -36 30 -62 15 -34 27 -48 41 -48 56 0 76 -45 39 -85 -19 -20 -19 -24
-5 -100 28 -158 51 -325 45 -335 -4 -6 -24 -4 -54 6 -49 17 -66 14 -49 -8 30
-39 19 -48 -14 -12 -21 22 -56 48 -78 59 -22 11 -44 26 -48 33 -16 25 -30 12
-24 -23 5 -31 2 -38 -31 -65 -40 -33 -55 -34 -60 -4 -4 20 -40 64 -53 64 -5 0
-14 -18 -20 -40 -7 -22 -17 -39 -23 -37 -13 4 -24 41 -25 85 -1 18 -5 40 -10
50 -4 9 -16 34 -26 54 -15 33 -41 55 -51 45 -2 -2 -9 -30 -15 -62 -11 -59 -30
-88 -71 -110 -13 -6 -22 -17 -21 -23 4 -15 -10 -15 -24 -1 -6 6 -21 16 -33 23
-22 11 -48 72 -79 185 l-13 44 -21 -43 c-29 -58 -50 -70 -77 -45 -11 10 -18
25 -16 32 3 7 1 15 -4 18 -16 10 -12 119 6 153 25 51 90 82 109 52 13 -21 24
-9 19 19 -10 47 14 125 47 157 37 35 37 47 0 39 -40 -9 -56 22 -65 120 -6 75
-5 81 16 97 20 15 22 24 20 77 -2 41 2 70 14 93 22 43 30 48 89 49 28 0 59 4
70 9 38 16 51 10 85 -42z m-520 -136 c0 -19 -33 -53 -42 -44 -7 7 -4 17 9 30
19 21 33 27 33 14z m2094 -558 c3 -8 2 -12 -4 -9 -6 3 -10 10 -10 16 0 14 7
11 14 -7z"/>
<path d="M5468 3523 c7 -3 16 -2 19 1 4 3 -2 6 -13 5 -11 0 -14 -3 -6 -6z"/>
<path d="M5790 4052 c0 -26 84 -110 117 -118 16 -4 61 -22 101 -41 75 -35 107
-39 55 -7 -15 10 -61 42 -100 71 -40 29 -82 53 -93 53 -11 0 -20 7 -20 15 0 8
-13 21 -30 30 -28 15 -30 14 -30 -3z"/>
<path d="M6895 3700 c3 -5 8 -10 11 -10 2 0 4 5 4 10 0 6 -5 10 -11 10 -5 0
-7 -4 -4 -10z"/>
<path d="M6980 3649 c6 -11 25 -28 41 -38 17 -10 37 -28 45 -40 8 -11 21 -21
28 -21 17 0 46 -59 46 -92 0 -13 9 -29 20 -36 11 -7 20 -20 20 -30 0 -11 13
-23 34 -30 19 -7 37 -19 40 -27 3 -8 11 -15 17 -15 10 0 47 -28 105 -81 22
-19 68 -25 274 -33 87 -4 252 -27 265 -37 6 -4 20 -9 30 -9 39 -3 210 1 235 4
14 3 32 5 40 5 12 1 12 3 0 15 -18 16 -169 46 -259 52 -77 4 -190 31 -211 49
-8 7 -34 18 -57 24 -23 7 -45 16 -48 21 -3 6 -25 10 -48 10 -58 0 -154 24
-176 44 -10 9 -29 16 -43 16 -14 0 -31 7 -38 15 -7 8 -16 15 -21 15 -9 0 -13
3 -96 80 -43 40 -137 110 -148 110 -2 0 -21 11 -41 25 -47 32 -69 34 -54 4z"/>
<path d="M6745 3640 c6 -20 -2 -25 -34 -21 -7 2 -11 -2 -8 -7 3 -4 8 -22 11
-38 3 -16 10 -30 16 -32 5 -2 10 -9 10 -15 1 -16 35 -57 48 -57 5 0 15 -7 22
-15 14 -17 35 -21 25 -5 -3 6 -2 10 3 10 4 0 24 -21 43 -46 19 -25 46 -55 62
-66 15 -11 27 -28 27 -39 0 -10 6 -19 13 -19 8 0 32 -12 53 -27 22 -16 55 -37
74 -47 19 -11 51 -32 71 -48 20 -15 40 -28 44 -28 5 0 33 -17 64 -37 31 -21
76 -48 101 -60 94 -48 166 -93 204 -127 21 -19 42 -34 45 -31 9 5 123 -53 136
-69 6 -6 28 -25 50 -41 22 -17 46 -36 54 -43 7 -7 16 -10 19 -7 7 7 -33 45
-132 125 -37 30 -93 77 -124 103 -32 27 -73 58 -92 68 -76 41 -171 110 -221
159 -35 34 -69 62 -128 105 -45 33 -172 119 -193 131 -10 6 -31 25 -45 43 -14
17 -32 31 -40 31 -8 0 -20 14 -27 30 -7 17 -16 27 -20 23 -4 -4 -4 1 0 11 6
15 3 17 -13 12 -14 -4 -28 3 -51 30 -18 20 -32 40 -32 44 0 7 -24 20 -36 20
-3 0 -2 -9 1 -20z m26 -63 c8 -7 18 -21 21 -33 4 -17 2 -20 -18 -16 -13 2 -24
11 -24 18 0 8 -4 14 -10 14 -5 0 -7 7 -4 15 7 18 14 18 35 2z"/>
<path d="M6755 3560 c3 -5 8 -10 11 -10 2 0 4 5 4 10 0 6 -5 10 -11 10 -5 0
-7 -4 -4 -10z"/>
<path d="M6850 3636 c0 -20 23 -44 47 -51 28 -7 55 -34 46 -48 -3 -4 -11 -3
-19 4 -8 7 -14 7 -14 1 0 -5 7 -15 15 -22 10 -9 15 -9 15 -1 0 6 5 11 10 11 6
0 10 -6 10 -13 0 -21 71 -87 123 -113 52 -27 70 -25 45 3 -8 10 -23 39 -33 65
-17 45 -22 50 -109 93 -50 25 -101 53 -113 61 -13 9 -23 13 -23 10z m203 -134
c22 -19 22 -27 -2 -29 -10 -1 -22 6 -25 15 -3 9 -9 23 -12 31 -7 15 9 8 39
-17z"/>
<path d="M7973 3305 c15 -14 33 -25 40 -25 7 1 -1 12 -18 25 -39 32 -58 32
-22 0z"/>
<path d="M6641 3285 c0 -14 28 -50 34 -43 3 3 -3 16 -14 29 -11 13 -20 20 -20
14z"/>
<path d="M6745 3280 c3 -5 8 -10 11 -10 2 0 4 5 4 10 0 6 -5 10 -11 10 -5 0
-7 -4 -4 -10z"/>
<path d="M6905 3160 c-3 -5 1 -10 10 -10 9 0 13 5 10 10 -3 6 -8 10 -10 10 -2
0 -7 -4 -10 -10z"/>
<path d="M3340 2971 c-30 -15 -67 -31 -82 -35 -28 -6 -179 -96 -204 -121 -9
-8 -24 -20 -35 -25 -10 -6 -19 -16 -19 -23 0 -7 -15 -19 -33 -28 -45 -22 -91
-94 -122 -195 -26 -84 -27 -94 -23 -253 5 -173 15 -219 48 -228 11 -3 20 -9
20 -13 0 -5 3 -17 7 -27 6 -16 5 -16 -10 -4 -15 11 -17 11 -17 -2 0 -18 17
-26 42 -19 16 4 15 20 -8 77 -4 11 13 -1 38 -28 25 -26 49 -62 54 -80 10 -34
41 -48 55 -25 5 7 8 42 8 78 -1 62 5 107 15 117 9 9 46 -19 111 -84 37 -38 64
-59 61 -48 -11 31 -24 165 -32 328 -3 81 -10 150 -15 153 -5 3 -9 -2 -9 -10 0
-9 -3 -16 -7 -16 -14 0 -55 68 -51 84 2 13 10 10 34 -13 l32 -30 -3 29 c-1 16
-8 36 -14 44 -20 24 -49 85 -43 91 3 3 18 5 34 5 26 0 28 -3 28 -37 0 -50 19
-30 23 23 2 35 0 39 -20 38 -13 0 -23 3 -23 8 0 4 19 8 43 8 l42 0 28 74 c15
41 41 89 58 107 44 47 73 109 52 109 -5 0 -33 -13 -63 -29z m-195 -280 c-3 -6
-11 -11 -17 -11 -6 0 -6 6 2 15 14 17 26 13 15 -4z"/>
<path d="M7690 2980 c14 -11 30 -20 37 -20 6 0 23 -14 37 -32 20 -26 31 -32
57 -30 18 1 63 -10 101 -24 37 -15 71 -25 74 -22 3 3 2 16 -1 30 -8 32 -53 50
-165 64 -24 3 -57 15 -72 26 -16 11 -43 21 -61 23 l-32 4 25 -19z"/>
<path d="M2795 2760 c-40 -26 -241 -244 -326 -355 -13 -16 -29 -36 -35 -42 -7
-7 -22 -29 -35 -50 -13 -21 -40 -61 -61 -89 -21 -28 -40 -66 -44 -85 -11 -69
-14 -78 -37 -106 -13 -15 -29 -43 -35 -62 -11 -30 -10 -32 6 -26 20 8 26 8 65
-1 26 -6 27 -5 22 24 -4 26 -1 31 25 41 32 11 37 20 20 37 -7 7 1 14 25 21 29
9 37 9 41 -2 3 -7 12 -16 20 -19 8 -3 12 -2 9 3 -3 5 6 22 19 37 20 24 26 26
40 15 8 -7 18 -28 22 -47 6 -33 6 -33 53 -27 25 3 52 10 59 16 10 8 23 6 48
-8 37 -20 59 -13 29 9 -17 12 -15 13 15 19 26 6 31 11 27 27 -6 22 10 405 18
460 l6 35 -35 -38 c-19 -21 -42 -54 -51 -73 -9 -19 -20 -32 -26 -29 -5 4 5 26
23 51 18 25 56 82 83 127 28 45 61 99 73 120 l24 37 -29 0 c-15 0 -41 -9 -58
-20z m-97 -130 c-7 -10 -14 -17 -17 -15 -4 4 18 35 25 35 2 0 -1 -9 -8 -20z
m-12 -60 c0 -12 -4 -16 -9 -11 -5 5 -6 14 -3 20 10 15 12 14 12 -9z"/>
<path d="M0 1630 c0 -430 3 -590 11 -590 7 0 9 11 5 30 -3 17 -2 30 2 30 17 0
52 -32 46 -42 -15 -23 45 28 62 54 10 15 22 24 26 20 3 -4 37 -65 74 -137 37
-71 87 -168 111 -213 23 -46 43 -90 43 -98 0 -18 56 -130 68 -138 5 -3 12 18
15 47 6 62 46 172 57 160 14 -14 140 -361 140 -385 0 -13 7 -45 16 -73 8 -27
22 -93 30 -145 28 -167 19 -150 80 -150 50 0 54 2 54 24 0 13 7 27 16 30 18 7
44 -15 44 -38 0 -14 51 -16 486 -16 l485 0 -6 23 c-4 12 -13 32 -21 44 -7 12
-20 39 -28 60 -56 151 -87 225 -114 268 -16 28 -43 73 -59 102 -15 29 -57 100
-93 159 -36 59 -72 119 -82 134 -9 15 -31 48 -50 73 -18 25 -58 82 -88 127
-47 70 -84 122 -117 165 -5 6 -32 43 -62 83 -29 39 -60 72 -68 72 -8 0 -33
-19 -54 -42 -36 -39 -66 -81 -176 -241 -29 -44 -33 -46 -37 -25 -4 24 -24 270
-31 389 -2 36 -7 84 -10 105 -8 43 -58 129 -80 138 -8 3 -15 13 -15 23 0 33
-57 113 -80 113 -6 0 -9 4 -6 8 2 4 1 14 -4 22 -10 17 -9 22 -42 -190 -24
-153 -25 -154 -36 -113 -7 23 -19 54 -27 70 -8 15 -15 34 -15 41 0 6 -6 12
-14 12 -8 0 -49 68 -97 165 -59 119 -87 165 -98 163 -9 -2 -38 -46 -64 -98
-26 -52 -49 -96 -51 -97 -9 -9 -69 220 -82 307 -11 83 -13 91 -24 126 -6 19
-18 34 -26 34 -12 0 -14 -87 -14 -590z m952 -1295 c3 -13 1 -22 -3 -19 -9 5
-13 44 -5 44 2 0 6 -11 8 -25z m23 -85 c3 -5 1 -10 -4 -10 -6 0 -11 5 -11 10
0 6 2 10 4 10 3 0 8 -4 11 -10z"/>
<path d="M1875 2050 c-3 -5 -1 -10 4 -10 6 0 11 5 11 10 0 6 -2 10 -4 10 -3 0
-8 -4 -11 -10z"/>
<path d="M10080 80 l0 -80 80 0 80 0 0 80 0 80 -80 0 -80 0 0 -80z"/>
</g>
</svg>
